<svg id="Layer_1" data-name="Layer 1" xmlns="http://www.w3.org/2000/svg" viewBox="0 0 40 40"><defs><style>.cls-1{fill:#4d4d4d;}</style></defs><path class="cls-1" d="M38.28,22.84a78.13,78.13,0,0,0-.22-9.8c-.29-2.67-2.65-2.78-4.93-2.93-3.24-.22-6.49,0-9.73-.18a57.33,57.33,0,0,0-10.63.62c-2.58.42-2.25,2.82-2.39,5a77.68,77.68,0,0,0,0,10.46A2.67,2.67,0,0,0,11,28c.88.79,2.71.62,3.8.73A92.89,92.89,0,0,0,26,29c1.81-.05,3.61-.14,5.42-.25a31.32,31.32,0,0,0,5-.41C38.73,27.79,38.23,24.71,38.28,22.84ZM37,24.9a3,3,0,0,1-.25,1.16,55.53,55.53,0,0,0-7.1-6.7c2.37-2.14,4.65-4.4,7-6.6a8,8,0,0,1,.37,3C37.07,18.77,37.14,21.84,37,24.9ZM18,11.24c1.81-.11,3.63-.13,5.44-.08,2.54.16,5.08.05,7.63.1,1.22,0,3.11-.15,4.27.33a2.84,2.84,0,0,1,.46.24L30.34,17c-2,1.89-4.34,4.77-7.31,3.36a29.38,29.38,0,0,1-10.65-8.27C13.55,11.14,16.46,11.33,18,11.24ZM11.58,26.1c0-.56,0-1.29,0-1.53q-.06-1.3-.09-2.61c0-1.64,0-3.27.06-4.91a21.62,21.62,0,0,1,.21-3.81,24.52,24.52,0,0,0,5,4.62c1,.72,2,1.38,3.1,2A54.6,54.6,0,0,0,11.58,26.1Zm20.57,1.37q-2.5.18-5,.27c-3.35.12-6.71.12-10.06-.09-.83-.06-3.56,0-4.82-.51a53.55,53.55,0,0,1,8.79-6.55,11.6,11.6,0,0,0,2.39,1.34c1.87.63,3.78-.54,5.24-1.75a53.47,53.47,0,0,1,7.14,6.73,6,6,0,0,1-1.37.39A17.54,17.54,0,0,1,32.15,27.47Z"/><path class="cls-1" d="M2.56,15.12a50,50,0,0,1,5.34.09c.59,0,.59-.88,0-.92a47.54,47.54,0,0,0-5.34-.09C2,14.22,2,15.14,2.56,15.12Z"/><path class="cls-1" d="M6.42,19.92c.59,0,.59-.91,0-.92-1.75,0-3.5,0-5.25,0a.47.47,0,0,0,0,.93C2.92,19.89,4.67,19.89,6.42,19.92Z"/><path class="cls-1" d="M8,23.42c-1.7,0-3.4.07-5.11,0a.46.46,0,0,0,0,.92c1.71,0,3.41,0,5.11-.05C8.54,24.33,8.55,23.4,8,23.42Z"/></svg>