<svg id="Layer_1" data-name="Layer 1" xmlns="http://www.w3.org/2000/svg" viewBox="0 0 40 40"><defs><style>.cls-1{fill:#4d4d4d;}</style></defs><path class="cls-1" d="M16.58,24.33c-1.36-.67-3.27.62-4.49,1.48a22.65,22.65,0,0,1-4-8.45c1.29-.38,2.91-.77,3.81-1.7s.46-1.91.19-3c-.51-2-1.91-6.8-4.68-6.7a.46.46,0,0,0-.3,0c-9.72,3.83-5.64,16.63-1,23,2.57,3.54,7,6.68,11.53,5.56,1.24-.3,3.6-1.4,3.77-2.85.12-1.08-1.18-2.87-1.68-3.7C19,26.81,17.93,25,16.58,24.33ZM19,32.78a5.69,5.69,0,0,1-1.68.72c-2.5.63-5.11-.41-7.13-1.86C3.79,27.08-2.76,11.15,7.33,7.12c2,0,3.2,4.18,3.56,5.54.29,1.13.74,1.94-.42,2.56a20.54,20.54,0,0,1-3.26,1.21.59.59,0,0,0-.39.7A24,24,0,0,0,11.6,27a.57.57,0,0,0,.68.09,10.83,10.83,0,0,1,2.83-1.59c.92-.29,1.24,0,1.86.68A17.59,17.59,0,0,1,19.51,30c.19.39.82,1.31.74,1.79C20.24,31.84,18.8,32.9,19,32.78Z"/><path class="cls-1" d="M31.51,5.15c-4-.92-8.37-.21-11.33,2.88a8.69,8.69,0,0,0,.31,12.53,35.39,35.39,0,0,1-1.29,4.26.56.56,0,0,0,.82.64c1.42-.85,2.78-1.77,4.19-2.63a12.75,12.75,0,0,0,4.49.82,9.73,9.73,0,0,0,10.09-8.32A9.16,9.16,0,0,0,31.51,5.15Zm6.23,9.46a8.64,8.64,0,0,1-9,7.91,11.87,11.87,0,0,1-4.36-.85l-.05,0a.41.41,0,0,0-.52.13c-1,.6-2,1.25-3,1.88.33-1,.63-2.06.86-3.12a.46.46,0,0,0-.14-.58,7.6,7.6,0,0,1,0-11.63,10.69,10.69,0,0,1,9.29-2.18C34.83,7,38.06,10.18,37.74,14.61Z"/><path class="cls-1" d="M24.58,13a.4.4,0,0,0-.19-.11.44.44,0,0,0-.19,0,1.41,1.41,0,1,0-.71,2.72,1.41,1.41,0,0,0,1.77-.87A1.55,1.55,0,0,0,24.58,13Zm-.13,1.48a.58.58,0,0,1-.73.28c-.29-.1-.59-.4-.47-.72s.58-.41.91-.33A.72.72,0,0,1,24.45,14.43Z"/><path class="cls-1" d="M29,13a.4.4,0,0,0-.19-.11.42.42,0,0,0-.18,0,1.48,1.48,0,0,0-1.77,1A1.48,1.48,0,0,0,28,15.53a1.41,1.41,0,0,0,1.77-.87A1.55,1.55,0,0,0,29,13Zm-.13,1.48a.57.57,0,0,1-.73.28c-.28-.1-.59-.4-.46-.72s.57-.41.91-.33A.7.7,0,0,1,28.91,14.43Z"/><path class="cls-1" d="M33.5,13a.33.33,0,0,0-.18-.11.44.44,0,0,0-.19,0,1.41,1.41,0,1,0-.71,2.72,1.41,1.41,0,0,0,1.77-.87A1.54,1.54,0,0,0,33.5,13Zm-.12,1.48a.58.58,0,0,1-.73.28c-.29-.1-.59-.4-.47-.72s.57-.41.91-.33A.72.72,0,0,1,33.38,14.43Z"/></svg>