<svg id="Layer_1" data-name="Layer 1" xmlns="http://www.w3.org/2000/svg" viewBox="0 0 40 40"><defs><style>.cls-1{fill:#4d4d4d;}</style></defs><path class="cls-1" d="M20.29,18.77c2.82-.35,4.18-2.48,4.12-5.17-.08-3.09-2.83-4.78-5.66-4.54h-.11a4.86,4.86,0,0,0-4,5.39A5.06,5.06,0,0,0,20.29,18.77ZM18.82,9.89a4,4,0,0,1,3.29.84,4.18,4.18,0,0,1,1.47,2.87c.06,2.38-1.25,4.32-3.79,4.39C14.75,18.12,13.88,10.83,18.82,9.89Z"/><path class="cls-1" d="M38.72,30.13c-1.16-1.46-2.29-2.94-3.36-4.48-.51-.73-1-1.46-1.48-2.21-.26-.39-.52-1.12-1-1.34-.82-.43-2.65-.18-3.57-.21a32.36,32.36,0,0,0-4.06.05,14.71,14.71,0,0,0,1.9-7.4c-.07-4.78-3.88-8.77-8.85-7.94-4.19.7-6.73,4.51-6.61,8.6a14.07,14.07,0,0,0,2.12,7l-4.41,0a4.33,4.33,0,0,0-2.55.38c-1,.7-1.82,2.18-2.58,3.18-1.13,1.5-2.2,3-3.24,4.58a.41.41,0,0,0,.35.62c6,0,12,0,18,0,6.34-.1,12.71.25,19.05-.08A.42.42,0,0,0,38.72,30.13ZM18.12,7.77a6.4,6.4,0,0,1,6.2,1.91c1.81,1.91,2,4.65,1.6,7.13C25.3,21,22.83,24.18,19.85,27c-3.55-2.7-6.19-6-6.87-10.53C12.41,12.71,14.08,8.71,18.12,7.77Zm1.26,22.32c-5.72.09-11.44,0-17.17.05.65-.95,1.31-1.9,2-2.82a19.57,19.57,0,0,1,2.94-3.8C8,22.79,9.52,23,10.64,23l3.65,0,.09,0a22.61,22.61,0,0,0,5.23,5.24.44.44,0,0,0,.62,0,.1.1,0,0,1,.05,0,27.38,27.38,0,0,0,4.52-5.34h0a27.53,27.53,0,0,1,4.26-.11c1.19,0,2.81-.18,3.72.58a11.71,11.71,0,0,1,1.49,2.25c.36.54.73,1.06,1.11,1.59.72,1,1.46,2,2.22,2.93C31.54,30.31,25.45,30,19.38,30.09Z"/><path class="cls-1" d="M8.34,24.66a10.83,10.83,0,0,0-1.62,1.95c-.29.44.43.86.72.41a10.07,10.07,0,0,1,1.48-1.78C9.31,24.87,8.73,24.29,8.34,24.66Z"/><path class="cls-1" d="M9.14,26.23l-.82.51c-.46.27,0,1,.41.71l.82-.5C10,26.67,9.59,26,9.14,26.23Z"/></svg>